<svg width="220" height="160" viewBox="0 0 220 160" fill="none" xmlns="http://www.w3.org/2000/svg">
<path fill-rule="evenodd" clip-rule="evenodd" d="M81.4634 97.5803V57.4528H138.537V95.9161L118.846 76.3675C118.56 76.084 118.097 76.0838 117.811 76.3671L101.353 92.6806L94.3932 85.7713C94.1075 85.4876 93.6442 85.4876 93.3585 85.7713L81.4634 97.5803ZM102.018 79.1792C105.691 79.1792 108.67 76.2226 108.67 72.5755C108.67 68.9283 105.691 65.9717 102.018 65.9717C98.344 65.9717 95.3659 68.9283 95.3659 72.5755C95.3659 76.2226 98.344 79.1792 102.018 79.1792Z" fill="#C8D9FB"/>
<path d="M81.4634 99.608V103.547H138.537V97.953C138.5 97.9279 138.464 97.8991 138.432 97.8665L118.328 77.908L101.87 94.2216C101.584 94.5049 101.121 94.5047 100.835 94.2212L93.8758 87.3122L81.595 99.5042C81.5544 99.5445 81.5102 99.5791 81.4634 99.608Z" fill="#C8D9FB"/>
<path fill-rule="evenodd" clip-rule="evenodd" d="M220 0H0V160H220V0ZM80.7317 56C80.3276 56 80 56.3252 80 56.7264V104.274C80 104.675 80.3276 105 80.7317 105H139.268C139.672 105 140 104.675 140 104.274V56.7264C140 56.3252 139.672 56 139.268 56H80.7317Z" fill="#C8D9FB"/>
</svg>
